<?xml version="1.0" encoding="utf-8"?>
<!-- Generator: Adobe Illustrator 26.3.1, SVG Export Plug-In . SVG Version: 6.00 Build 0)  -->
<svg version="1.1" id="레이어_1" xmlns="http://www.w3.org/2000/svg" xmlns:xlink="http://www.w3.org/1999/xlink" x="0px"
	 y="0px" viewBox="0 0 348 286.6" style="enable-background:new 0 0 348 286.6;" xml:space="preserve">
<style type="text/css">
	.st0{fill:#CABDA5;}
</style>
<g>
	<g>
		<g>
			<g>
				<circle class="st0" cx="6.7" cy="225.2" r="4.4"/>
			</g>
			<g>
				<circle class="st0" cx="6.7" cy="243.4" r="4.4"/>
			</g>
			<g>
				<circle class="st0" cx="6.7" cy="279.8" r="4.4"/>
			</g>
		</g>
	</g>
	<g>
		<g>
			<g>
				<circle class="st0" cx="25.3" cy="225.2" r="4.4"/>
			</g>
			<g>
				<circle class="st0" cx="25.3" cy="243.4" r="4.4"/>
			</g>
			<g>
				<circle class="st0" cx="25.3" cy="279.8" r="4.4"/>
			</g>
			<g>
				<circle class="st0" cx="25.3" cy="207" r="4.4"/>
			</g>
		</g>
	</g>
	<g>
		<g>
			<g>
				<circle class="st0" cx="43.9" cy="243.4" r="4.4"/>
			</g>
			<g>
				<circle class="st0" cx="43.9" cy="261.6" r="4.4"/>
			</g>
		</g>
	</g>
	<g>
		<g>
			<g>
				<circle class="st0" cx="62.5" cy="225.2" r="4.4"/>
			</g>
			<g>
				<circle class="st0" cx="62.5" cy="279.8" r="4.4"/>
			</g>
			<g>
				<circle class="st0" cx="62.5" cy="188.8" r="4.4"/>
			</g>
		</g>
	</g>
	<g>
		<g>
			<g>
				<circle class="st0" cx="81.1" cy="261.6" r="4.4"/>
			</g>
			<g>
				<circle class="st0" cx="81.1" cy="207" r="4.4"/>
			</g>
			<g>
				<circle class="st0" cx="81.1" cy="188.8" r="4.4"/>
			</g>
		</g>
	</g>
	<g>
		<g>
			<g>
				<circle class="st0" cx="99.7" cy="243.4" r="4.4"/>
			</g>
			<g>
				<circle class="st0" cx="99.7" cy="207" r="4.4"/>
			</g>
			<g>
				<circle class="st0" cx="99.7" cy="152.4" r="4.4"/>
			</g>
			<g>
				<circle class="st0" cx="99.7" cy="116" r="4.4"/>
			</g>
			<g>
				<circle class="st0" cx="99.7" cy="97.8" r="4.4"/>
			</g>
			<g>
				<circle class="st0" cx="99.7" cy="79.6" r="4.4"/>
			</g>
		</g>
	</g>
	<g>
		<g>
			<g>
				<circle class="st0" cx="118.2" cy="188.8" r="4.4"/>
			</g>
			<g>
				<circle class="st0" cx="118.2" cy="170.6" r="4.4"/>
			</g>
			<g>
				<circle class="st0" cx="118.2" cy="152.4" r="4.4"/>
			</g>
			<g>
				<circle class="st0" cx="118.2" cy="116" r="4.4"/>
			</g>
			<g>
				<circle class="st0" cx="118.2" cy="97.8" r="4.4"/>
			</g>
			<g>
				<circle class="st0" cx="118.2" cy="79.6" r="4.4"/>
			</g>
		</g>
	</g>
	<g>
		<g>
			<g>
				<circle class="st0" cx="136.8" cy="207" r="4.4"/>
			</g>
			<g>
				<circle class="st0" cx="136.8" cy="188.8" r="4.4"/>
			</g>
			<g>
				<circle class="st0" cx="136.8" cy="170.6" r="4.4"/>
			</g>
			<g>
				<circle class="st0" cx="136.8" cy="134.2" r="4.4"/>
			</g>
			<g>
				<circle class="st0" cx="136.8" cy="79.6" r="4.4"/>
			</g>
			<g>
				<circle class="st0" cx="136.8" cy="6.8" r="4.4"/>
			</g>
		</g>
	</g>
	<g>
		<g>
			<g>
				<circle class="st0" cx="155.4" cy="134.2" r="4.4"/>
			</g>
			<g>
				<circle class="st0" cx="155.4" cy="116" r="4.4"/>
			</g>
			<g>
				<circle class="st0" cx="155.4" cy="97.8" r="4.4"/>
			</g>
			<g>
				<circle class="st0" cx="155.4" cy="61.4" r="4.4"/>
			</g>
			<g>
				<circle class="st0" cx="155.4" cy="6.8" r="4.4"/>
			</g>
		</g>
	</g>
	<g>
		<g>
			<g>
				<circle class="st0" cx="174" cy="170.6" r="4.4"/>
			</g>
			<g>
				<circle class="st0" cx="174" cy="152.4" r="4.4"/>
			</g>
			<g>
				<circle class="st0" cx="174" cy="134.2" r="4.4"/>
			</g>
			<g>
				<circle class="st0" cx="174" cy="116" r="4.4"/>
			</g>
			<g>
				<circle class="st0" cx="174" cy="61.4" r="4.4"/>
			</g>
			<g>
				<circle class="st0" cx="174" cy="43.2" r="4.4"/>
			</g>
			<g>
				<circle class="st0" cx="174" cy="25" r="4.4"/>
			</g>
			<g>
				<circle class="st0" cx="174" cy="6.8" r="4.4"/>
			</g>
		</g>
	</g>
	<g>
		<g>
			<g>
				<circle class="st0" cx="192.6" cy="134.2" r="4.4"/>
			</g>
			<g>
				<circle class="st0" cx="192.6" cy="116" r="4.4"/>
			</g>
			<g>
				<circle class="st0" cx="192.6" cy="79.6" r="4.4"/>
			</g>
			<g>
				<circle class="st0" cx="192.6" cy="43.2" r="4.4"/>
			</g>
			<g>
				<circle class="st0" cx="192.6" cy="6.8" r="4.4"/>
			</g>
		</g>
	</g>
	<g>
		<g>
			<g>
				<circle class="st0" cx="211.1" cy="134.2" r="4.4"/>
			</g>
			<g>
				<circle class="st0" cx="211.1" cy="79.6" r="4.4"/>
			</g>
			<g>
				<circle class="st0" cx="211.1" cy="43.2" r="4.4"/>
			</g>
			<g>
				<circle class="st0" cx="211.1" cy="6.8" r="4.4"/>
			</g>
		</g>
	</g>
	<g>
		<g>
			<g>
				<circle class="st0" cx="229.7" cy="134.2" r="4.4"/>
			</g>
			<g>
				<circle class="st0" cx="229.7" cy="116" r="4.4"/>
			</g>
			<g>
				<circle class="st0" cx="229.7" cy="97.8" r="4.4"/>
			</g>
			<g>
				<circle class="st0" cx="229.7" cy="79.6" r="4.4"/>
			</g>
			<g>
				<circle class="st0" cx="229.7" cy="43.2" r="4.4"/>
			</g>
			<g>
				<circle class="st0" cx="229.7" cy="25" r="4.4"/>
			</g>
		</g>
	</g>
	<g>
		<g>
			<g>
				<circle class="st0" cx="248.3" cy="134.2" r="4.4"/>
			</g>
			<g>
				<circle class="st0" cx="248.3" cy="116" r="4.4"/>
			</g>
			<g>
				<circle class="st0" cx="248.3" cy="79.6" r="4.4"/>
			</g>
			<g>
				<circle class="st0" cx="248.3" cy="61.4" r="4.4"/>
			</g>
			<g>
				<circle class="st0" cx="248.3" cy="25" r="4.4"/>
			</g>
		</g>
	</g>
	<g>
		<g>
			<g>
				<circle class="st0" cx="266.9" cy="170.6" r="4.4"/>
			</g>
			<g>
				<circle class="st0" cx="266.9" cy="152.4" r="4.4"/>
			</g>
			<g>
				<circle class="st0" cx="266.9" cy="134.2" r="4.4"/>
			</g>
			<g>
				<circle class="st0" cx="266.9" cy="97.8" r="4.4"/>
			</g>
			<g>
				<circle class="st0" cx="266.9" cy="6.8" r="4.4"/>
			</g>
		</g>
	</g>
	<g>
		<g>
			<g>
				<circle class="st0" cx="285.5" cy="134.2" r="4.4"/>
			</g>
			<g>
				<circle class="st0" cx="285.5" cy="97.8" r="4.4"/>
			</g>
			<g>
				<circle class="st0" cx="285.5" cy="79.6" r="4.4"/>
			</g>
			<g>
				<circle class="st0" cx="285.5" cy="61.4" r="4.4"/>
			</g>
			<g>
				<circle class="st0" cx="285.5" cy="43.2" r="4.4"/>
			</g>
		</g>
	</g>
	<g>
		<g>
			<g>
				<circle class="st0" cx="304.1" cy="170.6" r="4.4"/>
			</g>
			<g>
				<circle class="st0" cx="304.1" cy="152.4" r="4.4"/>
			</g>
			<g>
				<circle class="st0" cx="304.1" cy="116" r="4.4"/>
			</g>
			<g>
				<circle class="st0" cx="304.1" cy="97.8" r="4.4"/>
			</g>
			<g>
				<circle class="st0" cx="304.1" cy="79.6" r="4.4"/>
			</g>
		</g>
	</g>
	<g>
		<g>
			<g>
				<circle class="st0" cx="322.6" cy="170.6" r="4.4"/>
			</g>
			<g>
				<circle class="st0" cx="322.6" cy="152.4" r="4.4"/>
			</g>
			<g>
				<circle class="st0" cx="322.6" cy="97.8" r="4.4"/>
			</g>
			<g>
				<circle class="st0" cx="322.6" cy="79.6" r="4.4"/>
			</g>
		</g>
	</g>
	<g>
		<g>
			<g>
				<circle class="st0" cx="341.2" cy="170.6" r="4.4"/>
			</g>
			<g>
				<circle class="st0" cx="341.2" cy="152.4" r="4.4"/>
			</g>
		</g>
	</g>
</g>
</svg>
